<svg width="32" height="31" viewBox="0 0 32 31" fill="none" xmlns="http://www.w3.org/2000/svg">
<path d="M13.8294 0.101769C10.9956 0.469448 8.16191 1.66441 5.88408 3.43715C5.11125 4.04119 3.82319 5.32807 3.22661 6.10283C1.5318 8.26951 0.447123 10.8564 0.0946021 13.5746C-0.0680998 14.8352 -0.0138658 16.9362 0.20307 18.1443C1.32843 24.1979 5.89764 28.9909 12.0396 30.5273C13.4362 30.8818 14.3988 31 15.9852 31C17.5715 31 18.4935 30.8949 19.9442 30.5404C25.571 29.1879 30.1267 24.7757 31.5232 19.3262C31.8893 17.9211 31.9977 17.0282 31.9977 15.4918C31.9977 13.9423 31.8893 13.0362 31.5096 11.6312C29.8962 5.51191 24.5541 0.942179 18.0867 0.1149C16.9749 -0.0426771 14.914 -0.0295456 13.8294 0.101769ZM17.6664 9.21497C19.7002 9.56952 22.0729 10.7382 24.1067 12.4059C24.9744 13.115 26.3845 14.4938 26.8455 15.0978L27.1709 15.5181L26.6828 16.0827C26.0184 16.8837 24.7575 18.0787 23.8355 18.7878C21.8289 20.3504 19.7951 21.3353 17.7342 21.7555C16.88 21.9262 15.0903 21.9262 14.1954 21.7555C11.7278 21.2827 9.15168 19.8646 6.75182 17.6453C6.10102 17.0544 4.89431 15.7413 4.81296 15.5312C4.73161 15.3605 6.14169 13.8372 7.25349 12.8655C10.8194 9.81902 14.209 8.62406 17.6664 9.21497Z" fill="#7242EE"/>
<path d="M14.8465 10.7506C14.7652 10.7637 14.5076 10.8162 14.2771 10.8556C12.2026 11.2627 9.68075 12.7597 7.55206 14.8476L6.8877 15.491L7.66053 16.2395C9.7621 18.2749 11.8772 19.5355 14.1144 20.087C15.1313 20.3365 16.582 20.3628 17.5447 20.1527C19.2802 19.7719 20.9479 18.9446 22.6698 17.6183C23.3884 17.0668 24.9612 15.5961 24.9612 15.4779C24.9612 15.3466 23.4969 14.0072 22.6427 13.3375C20.9072 11.9981 19.0768 11.1183 17.4362 10.8162C16.8667 10.7112 15.2533 10.6718 14.8465 10.7506ZM16.704 11.9718C19.0632 12.4577 20.3242 14.8738 19.3344 17.0143C19.0632 17.592 18.3311 18.3405 17.7616 18.6426C14.8736 20.1395 11.5654 17.6314 12.3924 14.5718C12.745 13.2981 13.8568 12.2738 15.1991 11.9981C15.8092 11.8405 16.0804 11.8405 16.704 11.9718Z" fill="#7242EE"/>
</svg>
