<svg width="62" height="81" viewBox="0 0 62 81" fill="none" xmlns="http://www.w3.org/2000/svg">
<path d="M48.1763 7.83621C48.1763 11.8692 51.2521 15.1226 55.0882 15.1226C58.8897 15.1226 62.0001 15.1226 62.0001 15.1226L48.1763 0.549805V7.83621Z" fill="#364F6B"/>
<path d="M0 9.39567V71.686C0 76.5662 4.04348 80.5314 9.02006 80.5314H52.9799C57.9565 80.5314 61.9999 76.5662 61.9999 71.686V16.9193H54.1549C49.835 16.9193 46.3099 13.2592 46.3099 8.75176C46.3099 4.24435 46.3099 0.5842 46.3099 0.5842H8.9855C4.04348 0.55031 0 4.51547 0 9.39567ZM26.7837 69.0426C26.7837 69.4831 26.4035 69.8559 25.9197 69.8559H23.9498C23.5005 69.8559 23.0858 69.4831 23.0858 69.0426V65.3824C23.0858 64.9418 22.8785 64.8741 22.6365 65.2468L21.0468 67.687C20.8049 68.0597 20.563 68.3648 20.563 68.3648C20.563 68.3648 20.3211 68.0597 20.0791 67.687L18.4894 65.2468C18.2475 64.8741 18.0401 64.908 18.0401 65.3824V69.0426C18.0401 69.4831 17.66 69.8559 17.1761 69.8559H15.3099C14.8261 69.8559 14.4459 69.4831 14.4459 69.0426V59.96C14.4459 59.5194 14.8261 59.1127 15.3099 59.1127H17.4526C17.9019 59.1127 18.4894 59.4177 18.7313 59.8244L20.1828 62.1967C20.4247 62.6034 20.8394 62.6034 21.0814 62.1967L22.5329 59.8244C22.7748 59.4177 23.3623 59.1127 23.8116 59.1127H25.9197C26.369 59.1127 26.7837 59.4855 26.7837 59.96V69.0426ZM37.4972 64.7046C37.2553 65.213 36.9097 65.6196 36.4949 65.9585C36.0457 66.2975 35.5273 66.5347 34.9052 66.7041C34.2831 66.8736 33.6265 66.9414 32.8662 66.9414C32.8662 66.9414 32.5897 66.9414 32.2787 66.9414C31.9676 66.9414 31.6912 67.3142 31.6912 67.7886V69.0426C31.6912 69.4831 31.311 69.8559 30.8272 69.8559H28.8573C28.408 69.8559 28.0278 69.4831 28.0278 69.0426V59.96C28.0278 59.5194 28.408 59.1127 28.8573 59.1127H32.9353C33.6611 59.1127 34.3177 59.1805 34.9398 59.3499C35.5273 59.5194 36.0457 59.7566 36.4949 60.0616C36.9097 60.3667 37.2553 60.7733 37.4972 61.2478C37.7391 61.7223 37.8428 62.2984 37.8428 62.9084C37.8773 63.654 37.7391 64.2301 37.4972 64.7046ZM47.1739 68.0597C46.9319 68.5003 46.6209 68.8731 46.2062 69.1781C45.7915 69.4831 45.3076 69.7204 44.7893 69.8559C44.2363 70.0254 43.6833 70.0932 43.0613 70.0932C41.9208 70.0932 40.9531 69.9237 40.1237 69.5848C39.5708 69.3476 39.0869 69.0765 38.6031 68.7037C38.2575 68.4325 38.2575 67.8903 38.5685 67.5514L39.5708 66.5347C39.8818 66.1958 40.4002 66.1619 40.7458 66.433C40.9531 66.6025 41.1951 66.7041 41.4024 66.8058C41.8517 67.0091 42.2664 67.1108 42.7502 67.1108C43.165 67.1108 43.476 67.043 43.6833 66.8736C43.8907 66.7041 43.9944 66.5008 43.9944 66.2636C43.9944 65.9585 43.8907 65.7552 43.6488 65.6196C43.4069 65.4841 43.0613 65.3824 42.5774 65.3824C42.5774 65.3824 42.2318 65.3824 41.8171 65.3824C41.3679 65.3824 40.9186 65.0096 40.8149 64.6029C40.6767 64.1624 40.8495 63.5862 41.2296 63.2812L42.3355 62.434C42.7157 62.1628 42.612 61.9256 42.1627 61.9256H39.7781C39.3288 61.9256 38.9487 61.5528 38.9487 61.0784V59.96C38.9487 59.5194 39.3288 59.1127 39.7781 59.1127H46.5172C46.9665 59.1127 47.3467 59.4855 47.3467 59.96V60.7733C47.3467 61.2139 47.0356 61.8239 46.6555 62.0951L45.5496 62.9084C45.1694 63.1795 45.2385 63.4846 45.6878 63.6879C46.1371 63.8912 46.5518 64.1285 46.8628 64.4674C47.3467 64.9418 47.5886 65.6196 47.5886 66.4669C47.5195 67.0769 47.4158 67.6192 47.1739 68.0597ZM20.3556 40.6086C21.8071 40.3036 23.2586 40.3714 24.5028 40.7442V25.5613C24.5028 24.5107 25.2285 23.6296 26.2999 23.3924L45.0312 19.5289C45.1003 19.5289 45.1694 19.5289 45.2385 19.495C45.3076 19.495 45.4113 19.4611 45.4804 19.4611C45.515 19.4611 45.5496 19.4611 45.5841 19.4611C45.6878 19.4611 45.826 19.4611 45.9297 19.495C45.9988 19.495 46.068 19.5289 46.1371 19.5628C46.2062 19.5966 46.2753 19.5966 46.3444 19.6305C46.4136 19.6644 46.4827 19.6983 46.5518 19.7322C46.6209 19.7661 46.6555 19.8 46.7246 19.8339C46.7937 19.8678 46.8283 19.9356 46.8974 19.9694C46.9319 20.0033 47.0011 20.0372 47.0702 20.105C47.1047 20.1389 47.1739 20.2067 47.2084 20.2745C47.243 20.3083 47.3121 20.3761 47.3467 20.4439C47.3812 20.5117 47.4158 20.5795 47.4849 20.6811C47.5195 20.715 47.554 20.7828 47.554 20.8506C47.5886 20.9523 47.6231 21.0878 47.6577 21.1895C47.6577 21.2234 47.6577 21.2234 47.6923 21.2573C47.6923 21.3251 47.6923 21.4267 47.7268 21.4945C47.7268 21.5623 47.7268 21.6301 47.7268 21.6978V41.8287C47.7268 41.9642 47.7268 42.0659 47.6923 42.2015C47.6577 45.0482 45.1348 47.6917 41.6098 48.4373C37.6009 49.2845 33.7993 47.3189 33.1081 44.0993C32.4169 40.8797 35.078 37.5924 39.0869 36.7451C40.5384 36.4401 41.9899 36.5079 43.2341 36.8807V24.4091L28.9955 27.3575V45.7261C28.9955 45.8616 28.9955 45.9633 28.961 46.0988C28.9264 48.9456 26.4035 51.5891 22.8785 52.3347C18.8695 53.1819 15.068 51.2163 14.3768 47.9967C13.651 44.7432 16.3467 41.4559 20.3556 40.6086Z" fill="#364F6B"/>
<path d="M32.6937 62.0273C32.6937 62.0273 32.4518 62.0273 32.2099 62.0273C31.9334 62.0273 31.7261 62.4001 31.7261 62.8746V63.6202C31.7261 64.0608 31.9334 64.4674 32.2099 64.4674H32.6937C33.1776 64.4674 33.5577 64.3658 33.8342 64.1624C34.1107 63.9591 34.2835 63.6541 34.2835 63.2813C34.2835 62.8746 34.1452 62.5696 33.8688 62.3662C33.5577 62.129 33.1776 62.0273 32.6937 62.0273Z" fill="#364F6B"/>
</svg>
