<svg width="86" height="111" viewBox="0 0 86 111" fill="none" xmlns="http://www.w3.org/2000/svg">
<path d="M66.8247 10.107C66.8247 15.701 71.0911 20.2139 76.4122 20.2139C81.6853 20.2139 85.9997 20.2139 85.9997 20.2139L66.8247 0V10.107Z" fill="#7242EE"/>
<path d="M0 12.2695V98.6723C0 105.442 5.60869 110.942 12.5117 110.942H73.4882C80.3913 110.942 85.9999 105.442 85.9999 98.6723V22.7056H75.1181C69.1259 22.7056 64.2363 17.6286 64.2363 11.3764C64.2363 5.12416 64.2363 0.0471741 64.2363 0.0471741H12.4638C5.60869 0.000165001 0 5.50023 0 12.2695ZM37.1516 95.0056C37.1516 95.6167 36.6243 96.1338 35.9532 96.1338H33.2207C32.5975 96.1338 32.0223 95.6167 32.0223 95.0056V89.9286C32.0223 89.3175 31.7346 89.2235 31.3991 89.7406L29.194 93.1252C28.8584 93.6423 28.5228 94.0654 28.5228 94.0654C28.5228 94.0654 28.1873 93.6423 27.8517 93.1252L25.6466 89.7406C25.311 89.2235 25.0234 89.2705 25.0234 89.9286V95.0056C25.0234 95.6167 24.4961 96.1338 23.825 96.1338H21.2363C20.5652 96.1338 20.0379 95.6167 20.0379 95.0056V82.4071C20.0379 81.796 20.5652 81.2319 21.2363 81.2319H24.2085C24.8316 81.2319 25.6466 81.655 25.9821 82.2191L27.9955 85.5097C28.3311 86.0738 28.9063 86.0738 29.2419 85.5097L31.2553 82.2191C31.5908 81.655 32.4058 81.2319 33.029 81.2319H35.9532C36.5763 81.2319 37.1516 81.749 37.1516 82.4071V95.0056ZM52.0122 88.9884C51.6767 89.6936 51.1973 90.2577 50.622 90.7278C49.9988 91.1978 49.2798 91.5269 48.4169 91.762C47.554 91.997 46.6432 92.091 45.5886 92.091C45.5886 92.091 45.2051 92.091 44.7737 92.091C44.3422 92.091 43.9587 92.6081 43.9587 93.2662V95.0056C43.9587 95.6167 43.4314 96.1338 42.7603 96.1338H40.0278C39.4047 96.1338 38.8773 95.6167 38.8773 95.0056V82.4071C38.8773 81.796 39.4047 81.2319 40.0278 81.2319H45.6845C46.6912 81.2319 47.602 81.3259 48.4648 81.561C49.2798 81.796 49.9988 82.1251 50.622 82.5482C51.1973 82.9713 51.6767 83.5354 52.0122 84.1935C52.3478 84.8516 52.4916 85.6508 52.4916 86.4969C52.5395 87.5311 52.3478 88.3303 52.0122 88.9884ZM65.4347 93.6423C65.0992 94.2534 64.6677 94.7705 64.0925 95.1936C63.5172 95.6167 62.8461 95.9458 62.127 96.1338C61.36 96.3688 60.593 96.4629 59.7302 96.4629C58.1482 96.4629 56.806 96.2278 55.6555 95.7577C54.8885 95.4287 54.2174 95.0526 53.5462 94.5355C53.0669 94.1594 53.0668 93.4073 53.4983 92.9372L54.8885 91.5269C55.3199 91.0568 56.039 91.0098 56.5184 91.3859C56.806 91.6209 57.1415 91.762 57.4292 91.903C58.0524 92.185 58.6276 92.3261 59.2987 92.3261C59.874 92.3261 60.3054 92.232 60.593 91.997C60.8807 91.762 61.0245 91.4799 61.0245 91.1508C61.0245 90.7278 60.8807 90.4457 60.5451 90.2577C60.2095 90.0696 59.7302 89.9286 59.059 89.9286C59.059 89.9286 58.5797 89.9286 58.0044 89.9286C57.3812 89.9286 56.758 89.4115 56.6142 88.8474C56.4225 88.2363 56.6622 87.4371 57.1895 87.014L58.7235 85.8388C59.2508 85.4627 59.107 85.1337 58.4838 85.1337H55.1761C54.5529 85.1337 54.0256 84.6166 54.0256 83.9584V82.4071C54.0256 81.796 54.5529 81.2319 55.1761 81.2319H64.5239C65.1471 81.2319 65.6744 81.749 65.6744 82.4071V83.5354C65.6744 84.1465 65.243 84.9926 64.7157 85.3687L63.1817 86.4969C62.6544 86.873 62.7502 87.2961 63.3734 87.5781C63.9966 87.8602 64.5719 88.1893 65.0033 88.6594C65.6744 89.3175 66.01 90.2577 66.01 91.4329C65.9141 92.2791 65.7703 93.0312 65.4347 93.6423ZM28.2352 55.5649C30.2486 55.1419 32.262 55.2359 33.9877 55.753V34.6929C33.9877 33.2356 34.9944 32.0134 36.4805 31.6843L62.4626 26.3253C62.5585 26.3253 62.6544 26.3253 62.7502 26.2783C62.8461 26.2783 62.9899 26.2313 63.0858 26.2313C63.1337 26.2313 63.1817 26.2313 63.2296 26.2313C63.3734 26.2313 63.5652 26.2313 63.709 26.2783C63.8049 26.2783 63.9007 26.3253 63.9966 26.3723C64.0925 26.4193 64.1884 26.4193 64.2842 26.4663C64.3801 26.5133 64.476 26.5603 64.5719 26.6073C64.6677 26.6543 64.7157 26.7013 64.8115 26.7484C64.9074 26.7954 64.9554 26.8894 65.0512 26.9364C65.0992 26.9834 65.195 27.0304 65.2909 27.1244C65.3389 27.1714 65.4347 27.2654 65.4827 27.3595C65.5306 27.4065 65.6265 27.5005 65.6744 27.5945C65.7224 27.6885 65.7703 27.7826 65.8662 27.9236C65.9141 27.9706 65.962 28.0646 65.962 28.1586C66.01 28.2997 66.0579 28.4877 66.1059 28.6287C66.1059 28.6757 66.1059 28.6757 66.1538 28.7227C66.1538 28.8167 66.1538 28.9578 66.2017 29.0518C66.2017 29.1458 66.2017 29.2398 66.2017 29.3339V57.2573C66.2017 57.4453 66.2017 57.5863 66.1538 57.7744C66.1059 61.7231 62.6064 65.3898 57.7168 66.424C52.156 67.5993 46.8829 64.8727 45.9242 60.4069C44.9654 55.941 48.6566 51.3811 54.2174 50.2059C56.2307 49.7828 58.2441 49.8768 59.9699 50.3939V33.0946L40.2196 37.1844V62.6633C40.2196 62.8513 40.2196 62.9924 40.1717 63.1804C40.1237 67.1292 36.6243 70.7959 31.7346 71.8301C26.1739 73.0053 20.9008 70.2788 19.942 65.8129C18.9353 61.3 22.6745 56.7402 28.2352 55.5649Z" fill="#7242EE"/>
<path d="M45.3491 85.2744C45.3491 85.2744 45.0135 85.2744 44.678 85.2744C44.2945 85.2744 44.0068 85.7915 44.0068 86.4496V87.4838C44.0068 88.095 44.2945 88.6591 44.678 88.6591H45.3491C46.0202 88.6591 46.5475 88.518 46.931 88.236C47.3145 87.9539 47.5542 87.5309 47.5542 87.0138C47.5542 86.4496 47.3625 86.0266 46.979 85.7445C46.5475 85.4154 46.0202 85.2744 45.3491 85.2744Z" fill="#7242EE"/>
</svg>
