<svg width="88" height="88" viewBox="0 0 88 88" fill="none" xmlns="http://www.w3.org/2000/svg">
<g clip-path="url(#clip0_1246_1896)">
<path opacity="0.2" d="M75.1115 75.1121C92.2943 57.9294 92.2943 30.0706 75.1116 12.8879C57.9288 -4.2949 30.07 -4.29489 12.8873 12.8879C-4.29548 30.0706 -4.29548 57.9294 12.8873 75.1121C30.07 92.2949 57.9288 92.2949 75.1115 75.1121Z" fill="#3CB4C5"/>
<path opacity="0.2" d="M71.4001 71.4006C86.533 56.2677 86.533 31.7323 71.4001 16.5994C56.2671 1.46645 31.7318 1.46645 16.5989 16.5994C1.46591 31.7323 1.46591 56.2677 16.5989 71.4006C31.7318 86.5335 56.2671 86.5335 71.4001 71.4006Z" fill="#3CB4C5"/>
<path opacity="0.2" d="M66.516 66.5167C78.9516 54.0811 78.9516 33.9189 66.516 21.4833C54.0804 9.04763 33.9182 9.04764 21.4825 21.4833C9.04689 33.9189 9.0469 54.0811 21.4825 66.5167C33.9182 78.9524 54.0804 78.9524 66.516 66.5167Z" fill="#3CB4C5"/>
<path d="M36.9375 40.2407H40.4549C40.6435 40.2407 40.8546 40.2935 41.0129 40.2247C41.2105 40.1079 41.3926 39.9666 41.5549 39.8042C41.3726 39.6635 41.1935 39.4109 41.0049 39.4029C39.9512 39.363 38.8944 39.3837 37.8392 39.3821H36.9743V37.0767C38.1942 37.0767 39.3821 37.0863 40.5716 37.0767C40.9409 37.0767 41.5101 37.2365 41.5309 36.661C41.5453 36.0614 40.9681 36.2389 40.6036 36.2341C39.4124 36.2165 38.2197 36.2341 36.9855 36.2341V33.895C38.1718 33.895 39.3597 33.9078 40.546 33.895C40.9281 33.895 41.5533 34.0917 41.5341 33.4586C41.5165 32.851 40.8945 33.0605 40.5124 33.0525C39.3469 33.0317 38.1814 33.0445 36.9823 33.0445V30.7214H40.3797C40.5908 30.7214 40.821 30.7678 41.0065 30.6974C41.1919 30.6271 41.379 30.432 41.5628 30.2929C41.3806 30.1522 41.2031 29.8964 41.0145 29.8884C40.0072 29.8452 38.9984 29.8644 37.9895 29.8612H37.2253C37.3947 27.18 40.4533 24.6124 43.6493 24.4077C46.9588 24.1935 50.2044 26.6173 50.8215 29.8612H47.6767C47.4193 29.8612 47.1459 29.8197 46.9093 29.8932C46.7254 29.9492 46.5895 30.1554 46.4296 30.2961C46.5895 30.4336 46.7494 30.6718 46.9188 30.6894C47.4768 30.7438 48.038 30.7182 48.6056 30.7198C49.3778 30.7198 50.1501 30.7198 50.9862 30.7198V33.0301H47.6783C47.4912 33.0301 47.285 32.9805 47.1203 33.0429C46.875 33.1573 46.6406 33.2938 46.42 33.4506C46.6455 33.5961 46.8661 33.8583 47.0963 33.8679C48.1499 33.9126 49.2067 33.8886 50.262 33.8886H50.999V36.2277H47.6623C47.4273 36.2277 47.1731 36.1701 46.9636 36.2437C46.7542 36.3172 46.6087 36.5219 46.4344 36.6706C46.5943 36.8033 46.7542 37.0335 46.9332 37.0511C47.4912 37.1038 48.0524 37.0799 48.62 37.0815H50.9942V39.3885H48.0268C47.6751 39.3885 47.3122 39.3422 46.9748 39.4109C46.7734 39.4509 46.6103 39.6779 46.4312 39.8202C46.6135 39.9609 46.7909 40.2183 46.978 40.2247C48.0556 40.2647 49.1348 40.2471 50.214 40.2471H51.0422C51.0422 42.0218 51.071 43.7277 51.0326 45.432C51.0038 46.6903 51.0582 47.9901 50.7752 49.1972C50.1596 51.8257 48.4329 53.554 45.8285 54.2591C43.2528 54.9561 40.9361 54.3214 39.0271 52.4508C38.3552 51.8081 37.8236 51.0333 37.4659 50.175C37.1082 49.3168 36.9321 48.3938 36.9487 47.4641C36.9407 45.0883 36.9375 42.7205 36.9375 40.2407Z" fill="#EAFCFC"/>
<path d="M39.9334 59.3604C40.7424 59.6402 41.5897 59.8113 42.4163 60.0319V71.7032H45.5532V59.9808C45.9449 59.904 46.2711 59.8561 46.5892 59.7761C51.5455 58.5259 54.7575 55.4849 56.0893 50.5206C56.7448 48.0761 56.4235 45.5739 56.4714 43.0974C56.4906 42.1093 55.8671 41.4778 55.0037 41.4762C54.1404 41.4746 53.5504 42.0725 53.5312 43.075C53.5105 44.1286 53.5169 45.1854 53.5424 46.239C53.6048 48.8083 53.1731 51.2209 51.5519 53.3313C49.1745 56.4282 45.0959 57.808 41.3723 56.7096C37.5352 55.5905 34.7836 52.2457 34.531 48.3191C34.4287 46.7299 34.4894 45.1311 34.4591 43.5354C34.4735 43.1393 34.4288 42.7432 34.3264 42.3603C34.1089 41.7208 33.4262 41.3802 32.7275 41.4858C32.0289 41.5913 31.5157 42.1765 31.5029 42.9839C31.4773 44.5315 31.4805 46.0807 31.5029 47.6284C31.5182 50.2167 32.3379 52.7362 33.8483 54.8381C35.3587 56.94 37.4852 58.5204 39.9334 59.3604Z" fill="#EAFCFC"/>
</g>
<defs>
<clipPath id="clip0_1246_1896">
<rect width="88" height="88" fill="white"/>
</clipPath>
</defs>
</svg>
