<svg width="95" height="81" viewBox="0 0 95 81" fill="none" xmlns="http://www.w3.org/2000/svg">
<path fill-rule="evenodd" clip-rule="evenodd" d="M90.993 42.0039C89.3026 50.7139 81.9473 57.2779 73.1421 57.2779H22.1395C13.3343 57.2779 5.97895 50.7139 4.28857 42.0039H90.993Z" fill="#3FC1C9"/>
<path fill-rule="evenodd" clip-rule="evenodd" d="M11.7982 17.9985C14.2792 7.85656 24.3922 0 36.7112 0C45.0519 0 52.4163 3.60657 57.0357 9.06129C59.1487 8.15249 61.524 7.63699 64.034 7.63699C70.5897 7.63699 76.1544 11.1576 78.7774 16.0453C88.1145 18.6552 94.9999 27.5829 94.9999 38.185C94.9999 50.8299 85.2056 61.0959 73.1416 61.0959H65.8555C63.8446 61.0959 62.2125 59.3852 62.2125 57.2774C62.2125 55.1696 63.8446 53.4589 65.8555 53.4589H73.1416C81.1836 53.4589 87.7138 46.6143 87.7138 38.185C87.7138 30.6415 82.4879 24.3677 75.6244 23.1324C74.3347 22.8995 73.2637 21.9602 72.8174 20.6714C71.6917 17.4238 68.1161 15.274 64.034 15.274C61.7699 15.274 59.6824 15.9461 58.0485 17.105C57.2361 17.6816 56.2343 17.8877 55.2725 17.6815C54.3107 17.4734 53.4692 16.8663 52.941 15.9995C49.8571 10.9534 43.7113 7.63699 36.7112 7.63699C27.507 7.63699 19.6873 13.3686 18.6162 21.1583C18.4341 22.4776 17.6089 23.6021 16.4377 24.1252C11.2263 26.4545 7.56685 31.8749 7.56685 38.185C7.56685 46.6143 14.097 53.4589 22.139 53.4589H29.4251C31.4361 53.4589 33.0681 55.1696 33.0681 57.2774C33.0681 59.3852 31.4361 61.0959 29.4251 61.0959H22.139C10.0751 61.0959 0.280762 50.8299 0.280762 38.185C0.280762 29.4597 4.94385 21.8666 11.7982 17.9985Z" fill="#364F6B"/>
<path fill-rule="evenodd" clip-rule="evenodd" d="M43.9971 53.4584V76.3694C43.9971 78.4772 45.6292 80.1875 47.6401 80.1875C49.6511 80.1875 51.2832 78.4772 51.2832 76.3694V53.4584C51.2832 51.3506 49.6511 49.6403 47.6401 49.6403C45.6292 49.6403 43.9971 51.3506 43.9971 53.4584Z" fill="#364F6B"/>
<path fill-rule="evenodd" clip-rule="evenodd" d="M47.6398 58.858L41.1079 65.7046C39.6871 67.1957 37.3774 67.1957 35.9566 65.7046C34.534 64.2153 34.534 61.7944 35.9566 60.3052L45.0642 50.759C46.4868 49.2678 48.7929 49.2678 50.2155 50.759L59.3231 60.3052C60.7457 61.7944 60.7457 64.2153 59.3231 65.7046C57.9023 67.1957 55.5926 67.1957 54.1718 65.7046L47.6398 58.858Z" fill="#364F6B"/>
</svg>
